PathFileType	4	(X/Y/Z)	/Users/itak/Documents/Research/Walk-IL/dataset/trc/00544_00009.trc
DataRate	CameraRate	NumFrames	NumMarkers	Units	OrigDataRate	OrigDataStartFrame	OrigNumFrames
100.000000	100.000000	4	53	mm	100.000000	0	547
Frame#	Time	RPSI			LPSI			L3			STRN			T10			C7			CLAV			RBAK			LBAK			LSHO			LUPA			LAEL			LAOL			LWTS			LWPS			LFRA			LIFD			LHPS			LHTS			RSHO			RUPA			RAEL			RAOL			RWTS			RWPS			RFRA			RIFD			RHTS			RHPS			RBHD			LFHD			RFHD			LBHD			LHIP			RHIP			RASI			LASI			LKNE			LTHI			LANK			LTIP			LTOE			LMT1			LMT5			LHEE			RKNE			RTHI			RANK			RTIP			RTOE			RMT1			RMT5			RHEE			
		X1	Y1	Z1	X2	Y2	Z2	X3	Y3	Z3	X4	Y4	Z4	X5	Y5	Z5	X6	Y6	Z6	X7	Y7	Z7	X8	Y8	Z8	X9	Y9	Z9	X10	Y10	Z10	X11	Y11	Z11	X12	Y12	Z12	X13	Y13	Z13	X14	Y14	Z14	X15	Y15	Z15	X16	Y16	Z16	X17	Y17	Z17	X18	Y18	Z18	X19	Y19	Z19	X20	Y20	Z20	X21	Y21	Z21	X22	Y22	Z22	X23	Y23	Z23	X24	Y24	Z24	X25	Y25	Z25	X26	Y26	Z26	X27	Y27	Z27	X28	Y28	Z28	X29	Y29	Z29	X30	Y30	Z30	X31	Y31	Z31	X32	Y32	Z32	X33	Y33	Z33	X34	Y34	Z34	X35	Y35	Z35	X36	Y36	Z36	X37	Y37	Z37	X38	Y38	Z38	X39	Y39	Z39	X40	Y40	Z40	X41	Y41	Z41	X42	Y42	Z42	X43	Y43	Z43	X44	Y44	Z44	X45	Y45	Z45	X46	Y46	Z46	X47	Y47	Z47	X48	Y48	Z48	X49	Y49	Z49	X50	Y50	Z50	X51	Y51	Z51	X52	Y52	Z52	X53	Y53	Z53	

1	0	-867.4558715820312	1026.736206054688	184.0411682128906	-853.5310668945312	1029.65869140625	51.04202270507812	-854.0960693359375	1103.539794921875	111.9200439453125	-632.1865844726562	1304.187866210938	121.3075637817383	-867.7924194335938	1229.858764648438	109.3689193725586	-841.6785888671875	1505.248046875	124.4855575561523	-660.4774780273438	1414.142944335938	121.6475219726562	-906.9644165039062	1373.331787109375	201.9573822021484	-868.3583374023438	1450.147583007812	32.29133605957031	-770.1176147460938	1482.839111328125	-43.84757995605469	-772.8895874023438	1357.416625976562	-127.5307006835938	-743.1657104492188	1136.500732421875	-147.5742034912109	-833.8280639648438	1125.22021484375	-102.8309555053711	-642.4031372070312	898.7384643554688	-89.28896331787109	-677.8289794921875	873.4755249023438	-164.0968322753906	-715.2935791015625	1051.546020507812	-151.7063751220703	-631.717529296875	729.1910400390625	-92.04160308837891	-664.6451416015625	814.9812622070312	-155.7015228271484	-617.4392700195312	824.31884765625	-107.1459121704102	-789.87255859375	1469.750244140625	280.4332580566406	-810.3231201171875	1404.39208984375	347.0883483886719	-803.192626953125	1114.982543945312	390.8272399902344	-855.7353515625	1095.779296875	361.0364379882812	-662.5532836914062	897.9990844726562	352.4079895019531	-707.49755859375	876.8178100585938	418.149658203125	-790.6510009765625	1059.293334960938	398.0252380371094	-643.8455810546875	725.9920654296875	357.7671813964844	-631.1005859375	808.4327392578125	368.3759460449219	-687.4207153320312	802.8822021484375	416.6732482910156	-785.6873779296875	1690.399536132812	188.781005859375	-622.8731689453125	1724.871215820312	63.88272857666016	-650.5394897460938	1724.154418945312	205.8229370117188	-746.8817749023438	1690.391845703125	27.07148742675781	-722.17724609375	943.61669921875	-71.09281158447266	-756.2255249023438	945.3473510742188	312.06982421875	-666.3639526367188	972.6346435546875	262.3603210449219	-645.93994140625	965.1047973632812	-14.43173027038574	-719.7862548828125	495.0111083984375	-11.45389366149902	-710.7872314453125	662.0377807617188	-50.76233291625977	-798.6757202148438	33.47256469726562	-10.90098571777344	-782.5415649414062	252.7477111816406	-22.22078132629395	-596.0989990234375	38.98240661621094	69.04683685302734	-672.5224609375	40.66784286499023	95.86025238037109	-675.0328979492188	35.96963500976562	-11.80210399627686	-872.8988647460938	34.89914703369141	34.65775680541992	-742.7691650390625	499.3131103515625	264.1289367675781	-722.0554809570312	789.6005249023438	310.85546875	-829.1953735351562	36.24996185302734	241.1853942871094	-746.8192749023438	357.6886291503906	248.9833679199219	-607.1468505859375	38.92020416259766	213.2421112060547	-667.9468383789062	40.14715957641602	168.3169708251953	-698.0903930664062	37.19229888916016	270.1056213378906	-879.4647216796875	28.88144874572754	182.3301239013672	
2	0.01	-867.4453125	1026.73388671875	184.0296783447266	-853.5154418945312	1029.656005859375	51.0328369140625	-854.092529296875	1103.541870117188	111.9044952392578	-632.191650390625	1304.17578125	121.3111801147461	-867.7968139648438	1229.862426757812	109.3528213500977	-841.6502685546875	1505.244995117188	124.4524459838867	-660.4757690429688	1414.12890625	121.644660949707	-906.9707641601562	1373.33154296875	201.9354858398438	-868.3407592773438	1450.140014648438	32.26831436157227	-770.0958251953125	1482.811767578125	-43.87332153320312	-772.8619384765625	1357.399047851562	-127.538444519043	-743.156982421875	1136.48095703125	-147.6036834716797	-833.8539428710938	1125.22802734375	-102.8458633422852	-642.547607421875	898.6356811523438	-89.30429077148438	-677.951416015625	873.4180297851562	-164.1658477783203	-715.327880859375	1051.512084960938	-151.7357482910156	-631.9594116210938	729.10205078125	-92.19203186035156	-664.82861328125	814.8704223632812	-155.7649078369141	-617.7689819335938	824.0966796875	-107.2282485961914	-789.8768920898438	1469.746826171875	280.430419921875	-810.3363647460938	1404.378662109375	347.0704956054688	-803.2191772460938	1114.973876953125	390.7991027832031	-855.763427734375	1095.779174804688	361.0128784179688	-662.638671875	897.89794921875	352.3393249511719	-707.58544921875	876.796875	418.1576843261719	-790.6788940429688	1059.287719726562	398.007080078125	-644.0044555664062	725.9569091796875	357.84033203125	-631.2431030273438	808.37158203125	368.4524536132812	-687.5072631835938	802.8513793945312	416.6970825195312	-785.6749267578125	1690.387451171875	188.7791748046875	-622.8561401367188	1724.85888671875	63.91913986206055	-650.5377197265625	1724.143432617188	205.8321228027344	-746.8767700195312	1690.399536132812	27.07772254943848	-722.1705322265625	943.6245727539062	-71.12675476074219	-756.25732421875	945.3504028320312	312.0971374511719	-666.3826293945312	972.6552734375	262.3443603515625	-645.8980712890625	965.106201171875	-14.44322967529297	-719.7522583007812	495.0140075683594	-11.43613052368164	-710.8095703125	662.0614013671875	-50.7976188659668	-798.6830444335938	33.46779632568359	-10.90035438537598	-782.52587890625	252.7375030517578	-22.21001052856445	-596.1060180664062	38.98275756835938	69.0506591796875	-672.5183715820312	40.66589736938477	95.86328887939453	-675.0408935546875	35.96550369262695	-11.80226039886475	-872.89892578125	34.90023803710938	34.67926406860352	-742.7396850585938	499.3116760253906	264.1290283203125	-722.0650024414062	789.6053466796875	310.8670043945312	-829.1980590820312	36.25323486328125	241.1982269287109	-746.7998657226562	357.690673828125	248.9851837158203	-607.1470336914062	38.91979217529297	213.2422637939453	-667.9293212890625	40.15793228149414	168.31005859375	-698.0891723632812	37.19447326660156	270.1041564941406	-879.4677734375	28.87622451782227	182.3292388916016	
3	0.02	-867.4319458007812	1026.729614257812	184.0158233642578	-853.4973754882812	1029.651611328125	51.02302169799805	-854.0865478515625	1103.544067382812	111.8877182006836	-632.1991577148438	1304.161987304688	121.317512512207	-867.8001098632812	1229.867431640625	109.3345718383789	-841.614013671875	1505.241577148438	124.4146881103516	-660.4716186523438	1414.112182617188	121.6413726806641	-906.9774780273438	1373.330932617188	201.9111328125	-868.3193969726562	1450.130737304688	32.24374771118164	-770.068603515625	1482.780639648438	-43.90293121337891	-772.82958984375	1357.376953125	-127.5479965209961	-743.1473999023438	1136.454345703125	-147.6421966552734	-833.8829956054688	1125.23193359375	-102.8737564086914	-642.7245483398438	898.5090942382812	-89.33024597167969	-678.1150512695312	873.3485717773438	-164.2677612304688	-715.3792724609375	1051.466918945312	-151.7743072509766	-632.25341796875	729.0097045898438	-92.39298248291016	-665.0691528320312	814.7354125976562	-155.8649749755859	-618.1533203125	823.8497314453125	-107.3452072143555	-789.8809204101562	1469.742309570312	280.4261779785156	-810.3491821289062	1404.36279296875	347.0496826171875	-803.248291015625	1114.9609375	390.7633361816406	-855.796630859375	1095.77880859375	360.9868774414062	-662.7490234375	897.7710571289062	352.2576599121094	-707.6959838867188	876.7701416015625	418.1658935546875	-790.7147827148438	1059.279418945312	397.9844055175781	-644.2276611328125	725.9080200195312	357.9380798339844	-631.398193359375	808.3016357421875	368.5487670898438	-687.6104125976562	802.8098754882812	416.7383117675781	-785.6587524414062	1690.373413085938	188.7766265869141	-622.8328247070312	1724.843017578125	63.95979690551758	-650.5303955078125	1724.129516601562	205.8406066894531	-746.8668212890625	1690.407348632812	27.08462333679199	-722.1492919921875	943.6321411132812	-71.15984344482422	-756.306884765625	945.3572387695312	312.1379089355469	-666.4099731445312	972.68798828125	262.3119506835938	-645.84716796875	965.1099853515625	-14.45359325408936	-719.6931762695312	495.0213012695312	-11.43907356262207	-710.8309936523438	662.0867919921875	-50.84051513671875	-798.6918334960938	33.46222686767578	-10.89999294281006	-782.506591796875	252.7248382568359	-22.19694709777832	-596.1149291992188	38.98214340209961	69.05532073974609	-672.5159912109375	40.66486740112305	95.867431640625	-675.0497436523438	35.96104431152344	-11.80362033843994	-872.898193359375	34.90061569213867	34.69824600219727	-742.7041625976562	499.3103942871094	264.1286926269531	-722.0736694335938	789.6095581054688	310.8818359375	-829.2012329101562	36.25537490844727	241.21240234375	-746.7747192382812	357.6911315917969	248.98828125	-607.147216796875	38.91989135742188	213.2414093017578	-667.9175415039062	40.16752243041992	168.3009796142578	-698.0875244140625	37.1972541809082	270.102294921875	-879.4705200195312	28.87031364440918	182.3280181884766	
4	0.03	-867.4163818359375	1026.722900390625	184.0005645751953	-853.4795532226562	1029.6455078125	51.01433563232422	-854.0779418945312	1103.546142578125	111.871223449707	-632.2086181640625	1304.1474609375	121.3265380859375	-867.801025390625	1229.873901367188	109.3153076171875	-841.5714111328125	1505.238037109375	124.3762512207031	-660.4644775390625	1414.093383789062	121.6379623413086	-906.9834594726562	1373.330200195312	201.8869781494141	-868.295654296875	1450.120239257812	32.22079086303711	-770.037353515625	1482.748657226562	-43.93374252319336	-772.7953491210938	1357.351684570312	-127.5585021972656	-743.140625	1136.421875	-147.6871795654297	-833.9134521484375	1125.230834960938	-102.9155120849609	-642.9278564453125	898.36376953125	-89.37057495117188	-678.31884765625	873.2708129882812	-164.4046173095703	-715.4495239257812	1051.411743164062	-151.8206634521484	-632.5787353515625	728.9263916015625	-92.63703918457031	-665.3615112304688	814.585205078125	-156.0066986083984	-618.5579223632812	823.605712890625	-107.4970321655273	-789.8833618164062	1469.737060546875	280.42041015625	-810.35888671875	1404.345458984375	347.027587890625	-803.2777099609375	1114.943359375	390.7216796875	-855.833251953125	1095.778198242188	360.9613952636719	-662.8728637695312	897.6356201171875	352.1739807128906	-707.8241577148438	876.7378540039062	418.1724243164062	-790.7577514648438	1059.268310546875	397.9588928222656	-644.5140380859375	725.8446044921875	358.0570678710938	-631.5487060546875	808.2286376953125	368.6611633300781	-687.7239379882812	802.7586059570312	416.7992858886719	-785.6390380859375	1690.358764648438	188.7734527587891	-622.8032836914062	1724.823852539062	64.00039672851562	-650.51611328125	1724.113647460938	205.846923828125	-746.8505249023438	1690.413940429688	27.09173011779785	-722.1046752929688	943.6380004882812	-71.18511199951172	-756.3763427734375	945.3693237304688	312.1927185058594	-666.4456176757812	972.7332153320312	262.2609252929688	-645.7894287109375	965.115966796875	-14.46134567260742	-719.6082763671875	495.0326538085938	-11.4669017791748	-710.8475952148438	662.1112060546875	-50.88884353637695	-798.7015991210938	33.45600509643555	-10.89990139007568	-782.4852294921875	252.7105407714844	-22.18286514282227	-596.1253662109375	38.98027420043945	69.06056213378906	-672.5144653320312	40.66464996337891	95.87162780761719	-675.0584106445312	35.95696258544922	-11.80643463134766	-872.8967895507812	34.90013885498047	34.71047210693359	-742.6640014648438	499.309326171875	264.1277465820312	-722.0794677734375	789.6123046875	310.8999633789062	-829.2052001953125	36.25572204589844	241.2269134521484	-746.7442626953125	357.6892700195312	248.9924621582031	-607.1472778320312	38.92056655883789	213.2395172119141	-667.9140625	40.17423629760742	168.2904663085938	-698.0857543945312	37.20029067993164	270.1002502441406	-879.4723510742188	28.86407852172852	182.3265838623047	
